# xmcd
#
# Track frame offsets: 
#        150
#        16300
#        31107
#        45715
#        66114
#        80825
#        101154
#        113625
#        128493
#        146906
#
# Disc length: 2177 seconds
#
# Revision: 0
# Processed by: cddbd v1.5.2PL0 Copyright (c) Steve Scherf et al.
# Submitted via: ExactAudioCopy v0.99pb5
#
DISCID=83087f0a
DTITLE=Christer Knutsen and Sacred Hearts - Now Breathe
DYEAR=2009
DGENRE=Country
TTITLE0=This Way It Always Will Be
TTITLE1=Looking This Good
TTITLE2=This Week's Next Big Thing
TTITLE3=Main Street
TTITLE4=Time
TTITLE5=Your Fall
TTITLE6=Small Star
TTITLE7=To Hold On
TTITLE8=Here She Comes
TTITLE9=It's You I Want
EXTD=
EXTT0=
EXTT1=
EXTT2=
EXTT3=
EXTT4=
EXTT5=
EXTT6=
EXTT7=
EXTT8=
EXTT9=
PLAYORDER=
